<mxfile host="app.diagrams.net" modified="2022-02-21T14:54:11.692Z" agent="5.0 (Windows)" etag="9A1zyYGuxJkySu3FpRqT" version="16.6.1" type="github" pages="5">
  <diagram id="N8n0e8m4OVwDgdMQSZsH" name="Page-1">
    <mxGraphModel dx="1422" dy="752" grid="0" gridSize="10" guides="1" tooltips="1" connect="1" arrows="1" fold="1" page="1" pageScale="1" pageWidth="827" pageHeight="1169" background="none" math="0" shadow="0">
      <root>
        <mxCell id="0" />
        <mxCell id="1" parent="0" />
        <mxCell id="GY1iJmG1z7CzQcM_zp-M-31" value="&lt;p style=&quot;line-height: 1.2&quot;&gt;&lt;br&gt;&lt;/p&gt;" style="rounded=0;whiteSpace=wrap;html=1;fontSize=20;strokeWidth=2;dashed=1;" parent="1" vertex="1">
          <mxGeometry x="85" y="192" width="666" height="150" as="geometry" />
        </mxCell>
        <mxCell id="GY1iJmG1z7CzQcM_zp-M-29" style="edgeStyle=orthogonalEdgeStyle;rounded=0;orthogonalLoop=1;jettySize=auto;html=1;exitX=1;exitY=0.5;exitDx=0;exitDy=0;entryX=0;entryY=0.5;entryDx=0;entryDy=0;fontSize=20;endArrow=classic;endFill=1;strokeWidth=2;" parent="1" source="GY1iJmG1z7CzQcM_zp-M-1" target="GY1iJmG1z7CzQcM_zp-M-2" edge="1">
          <mxGeometry relative="1" as="geometry" />
        </mxCell>
        <mxCell id="GY1iJmG1z7CzQcM_zp-M-1" value="&lt;font style=&quot;font-size: 20px&quot;&gt;Wahrnehmung (Sense)&lt;/font&gt;" style="rounded=0;whiteSpace=wrap;html=1;" parent="1" vertex="1">
          <mxGeometry x="97" y="243.5" width="200" height="80" as="geometry" />
        </mxCell>
        <mxCell id="GY1iJmG1z7CzQcM_zp-M-30" style="edgeStyle=orthogonalEdgeStyle;rounded=0;orthogonalLoop=1;jettySize=auto;html=1;exitX=1;exitY=0.5;exitDx=0;exitDy=0;entryX=0;entryY=0.5;entryDx=0;entryDy=0;fontSize=20;endArrow=classic;endFill=1;strokeWidth=2;" parent="1" source="GY1iJmG1z7CzQcM_zp-M-2" target="GY1iJmG1z7CzQcM_zp-M-3" edge="1">
          <mxGeometry relative="1" as="geometry" />
        </mxCell>
        <mxCell id="GY1iJmG1z7CzQcM_zp-M-2" value="&lt;div style=&quot;font-size: 20px&quot;&gt;&lt;font style=&quot;font-size: 20px&quot;&gt;Funktion &lt;br&gt;&lt;/font&gt;&lt;/div&gt;&lt;div style=&quot;font-size: 20px&quot;&gt;&lt;font style=&quot;font-size: 20px&quot;&gt;(Plan)&lt;/font&gt;&lt;/div&gt;" style="rounded=0;whiteSpace=wrap;html=1;" parent="1" vertex="1">
          <mxGeometry x="317" y="243.5" width="200" height="80" as="geometry" />
        </mxCell>
        <mxCell id="GY1iJmG1z7CzQcM_zp-M-28" style="edgeStyle=orthogonalEdgeStyle;rounded=0;orthogonalLoop=1;jettySize=auto;html=1;exitX=0.5;exitY=1;exitDx=0;exitDy=0;entryX=1;entryY=0;entryDx=0;entryDy=0;fontSize=20;strokeWidth=2;endArrow=none;endFill=0;" parent="1" source="GY1iJmG1z7CzQcM_zp-M-3" target="GY1iJmG1z7CzQcM_zp-M-6" edge="1">
          <mxGeometry relative="1" as="geometry" />
        </mxCell>
        <mxCell id="GY1iJmG1z7CzQcM_zp-M-3" value="&lt;div style=&quot;font-size: 20px&quot;&gt;&lt;font style=&quot;font-size: 20px&quot;&gt;Aktorik &lt;br&gt;&lt;/font&gt;&lt;/div&gt;&lt;div style=&quot;font-size: 20px&quot;&gt;&lt;font style=&quot;font-size: 20px&quot;&gt;(Act)&lt;/font&gt;&lt;/div&gt;" style="rounded=0;whiteSpace=wrap;html=1;allowArrows=0;" parent="1" vertex="1">
          <mxGeometry x="537" y="243.5" width="200" height="80" as="geometry" />
        </mxCell>
        <mxCell id="GY1iJmG1z7CzQcM_zp-M-25" style="edgeStyle=orthogonalEdgeStyle;rounded=0;orthogonalLoop=1;jettySize=auto;html=1;exitX=0;exitY=0;exitDx=0;exitDy=0;entryX=0.468;entryY=0.984;entryDx=0;entryDy=0;entryPerimeter=0;fontSize=20;strokeWidth=2;" parent="1" source="GY1iJmG1z7CzQcM_zp-M-6" target="GY1iJmG1z7CzQcM_zp-M-1" edge="1">
          <mxGeometry relative="1" as="geometry" />
        </mxCell>
        <mxCell id="GY1iJmG1z7CzQcM_zp-M-6" value="&lt;font style=&quot;font-size: 20px&quot;&gt;Reales Umfeld&lt;/font&gt;" style="shape=partialRectangle;whiteSpace=wrap;html=1;bottom=1;right=1;left=1;top=0;fillColor=none;routingCenterX=-0.5;strokeWidth=2;allowArrows=0;" parent="1" vertex="1">
          <mxGeometry x="190" y="344" width="447" height="31" as="geometry" />
        </mxCell>
        <mxCell id="GY1iJmG1z7CzQcM_zp-M-32" value="&lt;span class=&quot;markedContent&quot; id=&quot;page36R_mcid9&quot;&gt;&lt;span style=&quot;left: 118.24px ; top: 705.758px ; font-size: 18.4px ; font-family: sans-serif ; transform: scalex(0.949661)&quot; dir=&quot;ltr&quot;&gt;Automatisiertes Fahrsystem&lt;/span&gt;&lt;/span&gt;" style="text;html=1;align=center;verticalAlign=middle;resizable=0;points=[];autosize=1;strokeColor=none;fillColor=none;fontSize=20;" parent="1" vertex="1">
          <mxGeometry x="299" y="198" width="238" height="29" as="geometry" />
        </mxCell>
      </root>
    </mxGraphModel>
  </diagram>
  <diagram id="A-Un7ZyJRZECxFhNMJzU" name="Page-2">
    <mxGraphModel dx="1422" dy="752" grid="0" gridSize="10" guides="1" tooltips="1" connect="1" arrows="1" fold="1" page="1" pageScale="1" pageWidth="827" pageHeight="1169" math="0" shadow="0">
      <root>
        <mxCell id="hupXlNnJuXjkIASSUB05-0" />
        <mxCell id="hupXlNnJuXjkIASSUB05-1" parent="hupXlNnJuXjkIASSUB05-0" />
        <mxCell id="a6dhOnjzKdn9SuVCjnqM-4" style="edgeStyle=orthogonalEdgeStyle;rounded=0;orthogonalLoop=1;jettySize=auto;html=1;exitX=1;exitY=0.5;exitDx=0;exitDy=0;entryX=0;entryY=0.5;entryDx=0;entryDy=0;strokeWidth=2;" parent="hupXlNnJuXjkIASSUB05-1" source="a6dhOnjzKdn9SuVCjnqM-2" target="VIhA6CncK7O6pqGtxIit-1" edge="1">
          <mxGeometry relative="1" as="geometry">
            <mxPoint x="294.5" y="336" as="targetPoint" />
          </mxGeometry>
        </mxCell>
        <mxCell id="a6dhOnjzKdn9SuVCjnqM-2" value="&lt;div style=&quot;font-size: 16px&quot;&gt;&lt;font style=&quot;font-size: 16px&quot;&gt;&lt;b&gt;Definition&lt;/b&gt; &lt;b&gt;Entwicklungsgegenstand&lt;/b&gt; &lt;br&gt;&lt;/font&gt;&lt;/div&gt;&lt;div style=&quot;font-size: 16px&quot;&gt;&lt;font style=&quot;font-size: 16px&quot;&gt;(Einsatzumgebung, Systemgrenzen)&lt;/font&gt;&lt;/div&gt;" style="text;html=1;strokeColor=default;fillColor=none;align=center;verticalAlign=middle;whiteSpace=wrap;rounded=0;" parent="hupXlNnJuXjkIASSUB05-1" vertex="1">
          <mxGeometry x="39" y="270" width="240" height="90" as="geometry" />
        </mxCell>
        <mxCell id="a6dhOnjzKdn9SuVCjnqM-7" style="edgeStyle=orthogonalEdgeStyle;rounded=0;orthogonalLoop=1;jettySize=auto;html=1;exitX=0.5;exitY=1;exitDx=0;exitDy=0;strokeWidth=2;" parent="hupXlNnJuXjkIASSUB05-1" source="a6dhOnjzKdn9SuVCjnqM-6" target="a6dhOnjzKdn9SuVCjnqM-2" edge="1">
          <mxGeometry relative="1" as="geometry" />
        </mxCell>
        <mxCell id="bVER5lbUNtfXGPkxV8xg-3" style="edgeStyle=orthogonalEdgeStyle;rounded=0;orthogonalLoop=1;jettySize=auto;html=1;exitX=0.5;exitY=1;exitDx=0;exitDy=0;entryX=0.5;entryY=0;entryDx=0;entryDy=0;fontSize=16;fontColor=#999999;strokeWidth=2;" parent="hupXlNnJuXjkIASSUB05-1" source="a6dhOnjzKdn9SuVCjnqM-6" target="VIhA6CncK7O6pqGtxIit-1" edge="1">
          <mxGeometry relative="1" as="geometry" />
        </mxCell>
        <mxCell id="a6dhOnjzKdn9SuVCjnqM-6" value="&lt;div style=&quot;font-size: 16px&quot;&gt;&lt;font style=&quot;font-size: 16px&quot;&gt;&lt;b&gt;Verkehrsszenario&lt;/b&gt; &lt;br&gt;&lt;/font&gt;&lt;/div&gt;&lt;div style=&quot;font-size: 16px&quot;&gt;&lt;font style=&quot;font-size: 16px&quot;&gt;(Unfalldatenbanken, Expertenwissen)&lt;/font&gt;&lt;/div&gt;" style="text;html=1;strokeColor=default;fillColor=none;align=center;verticalAlign=middle;whiteSpace=wrap;rounded=0;" parent="hupXlNnJuXjkIASSUB05-1" vertex="1">
          <mxGeometry x="154" y="107" width="300" height="90" as="geometry" />
        </mxCell>
        <mxCell id="bVER5lbUNtfXGPkxV8xg-1" style="edgeStyle=orthogonalEdgeStyle;rounded=0;orthogonalLoop=1;jettySize=auto;html=1;exitX=1;exitY=0.5;exitDx=0;exitDy=0;fontSize=16;fontColor=#999999;strokeWidth=2;" parent="hupXlNnJuXjkIASSUB05-1" source="VIhA6CncK7O6pqGtxIit-1" target="bVER5lbUNtfXGPkxV8xg-0" edge="1">
          <mxGeometry relative="1" as="geometry" />
        </mxCell>
        <mxCell id="VIhA6CncK7O6pqGtxIit-1" value="&lt;div style=&quot;font-size: 16px&quot;&gt;&lt;font style=&quot;font-size: 16px&quot;&gt;&lt;b&gt;Situationsanalyse und &lt;br&gt;&lt;/b&gt;&lt;/font&gt;&lt;/div&gt;&lt;div style=&quot;font-size: 16px&quot;&gt;&lt;font style=&quot;font-size: 16px&quot;&gt;&lt;b&gt;Risikobewertung&lt;/b&gt;&lt;/font&gt;&lt;/div&gt;" style="text;html=1;strokeColor=default;fillColor=none;align=center;verticalAlign=middle;whiteSpace=wrap;rounded=0;" parent="hupXlNnJuXjkIASSUB05-1" vertex="1">
          <mxGeometry x="312" y="270" width="182" height="91" as="geometry" />
        </mxCell>
        <mxCell id="bVER5lbUNtfXGPkxV8xg-0" value="&lt;div style=&quot;font-size: 16px&quot;&gt;&lt;font style=&quot;font-size: 16px&quot;&gt;&lt;b&gt;Sicherheitsziele und &lt;br&gt;&lt;/b&gt;&lt;/font&gt;&lt;/div&gt;&lt;div style=&quot;font-size: 16px&quot;&gt;&lt;font style=&quot;font-size: 16px&quot;&gt;&lt;b&gt;Sicherheitskonzept&lt;/b&gt;&lt;/font&gt;&lt;/div&gt;" style="text;html=1;strokeColor=default;fillColor=none;align=center;verticalAlign=middle;whiteSpace=wrap;rounded=0;" parent="hupXlNnJuXjkIASSUB05-1" vertex="1">
          <mxGeometry x="527" y="270" width="240" height="92" as="geometry" />
        </mxCell>
        <mxCell id="BFoCcrr7oBhBQ1uLv_oP-0" value="&lt;font style=&quot;font-size: 16px&quot;&gt;&lt;b&gt;Ableitung von TestfÃ¤llen&lt;br&gt;&lt;/b&gt;&lt;/font&gt;" style="text;html=1;strokeColor=default;fillColor=none;align=center;verticalAlign=middle;whiteSpace=wrap;rounded=0;" parent="hupXlNnJuXjkIASSUB05-1" vertex="1">
          <mxGeometry x="132" y="504" width="240" height="92" as="geometry" />
        </mxCell>
        <mxCell id="BFoCcrr7oBhBQ1uLv_oP-1" value="&lt;font style=&quot;font-size: 16px&quot;&gt;&lt;b&gt;Sicherheitsvalidierung&lt;br&gt;&lt;/b&gt;&lt;/font&gt;" style="text;html=1;strokeColor=default;fillColor=none;align=center;verticalAlign=middle;whiteSpace=wrap;rounded=0;" parent="hupXlNnJuXjkIASSUB05-1" vertex="1">
          <mxGeometry x="403" y="504" width="240" height="92" as="geometry" />
        </mxCell>
      </root>
    </mxGraphModel>
  </diagram>
  <diagram id="B_uB3y5Wh9GaumeKKQGt" name="Page-3">
    <mxGraphModel dx="1422" dy="752" grid="1" gridSize="10" guides="1" tooltips="1" connect="1" arrows="1" fold="1" page="1" pageScale="1" pageWidth="827" pageHeight="1169" math="0" shadow="0">
      <root>
        <mxCell id="04KiYXa_gExLw2YlK_Ps-0" />
        <mxCell id="04KiYXa_gExLw2YlK_Ps-1" parent="04KiYXa_gExLw2YlK_Ps-0" />
        <mxCell id="04KiYXa_gExLw2YlK_Ps-22" value="" style="rounded=0;whiteSpace=wrap;html=1;dashed=1;fontSize=14;strokeColor=#999999;strokeWidth=3;fillColor=none;" parent="04KiYXa_gExLw2YlK_Ps-1" vertex="1">
          <mxGeometry x="120" y="200" width="550" height="340" as="geometry" />
        </mxCell>
        <mxCell id="04KiYXa_gExLw2YlK_Ps-2" value="" style="endArrow=none;html=1;rounded=0;strokeWidth=4;" parent="04KiYXa_gExLw2YlK_Ps-1" edge="1">
          <mxGeometry width="50" height="50" relative="1" as="geometry">
            <mxPoint x="380" y="480" as="sourcePoint" />
            <mxPoint x="240" y="240" as="targetPoint" />
          </mxGeometry>
        </mxCell>
        <mxCell id="04KiYXa_gExLw2YlK_Ps-5" value="" style="shape=curlyBracket;whiteSpace=wrap;html=1;rounded=1;strokeColor=#000000;strokeWidth=2;rotation=-180;" parent="04KiYXa_gExLw2YlK_Ps-1" vertex="1">
          <mxGeometry x="600" y="240" width="50" height="240" as="geometry" />
        </mxCell>
        <mxCell id="04KiYXa_gExLw2YlK_Ps-9" value="&lt;font style=&quot;font-size: 16px&quot;&gt;Logische Architektur (MIL)&lt;/font&gt;" style="text;html=1;strokeColor=none;fillColor=none;align=center;verticalAlign=middle;whiteSpace=wrap;rounded=0;strokeWidth=1;fontSize=14;" parent="04KiYXa_gExLw2YlK_Ps-1" vertex="1">
          <mxGeometry x="120" y="240" width="100" height="60" as="geometry" />
        </mxCell>
        <mxCell id="04KiYXa_gExLw2YlK_Ps-10" value="&lt;font style=&quot;font-size: 16px&quot;&gt;Techhnische Architektur (SIL)&lt;/font&gt;" style="text;html=1;strokeColor=none;fillColor=none;align=center;verticalAlign=middle;whiteSpace=wrap;rounded=0;strokeWidth=1;fontSize=14;" parent="04KiYXa_gExLw2YlK_Ps-1" vertex="1">
          <mxGeometry x="180" y="330" width="100" height="60" as="geometry" />
        </mxCell>
        <mxCell id="04KiYXa_gExLw2YlK_Ps-11" value="&lt;font style=&quot;font-size: 16px&quot;&gt;Integrationstests (HIL)&lt;/font&gt;" style="text;html=1;strokeColor=none;fillColor=none;align=center;verticalAlign=middle;whiteSpace=wrap;rounded=0;strokeWidth=1;fontSize=14;" parent="04KiYXa_gExLw2YlK_Ps-1" vertex="1">
          <mxGeometry x="440" y="400" width="100" height="60" as="geometry" />
        </mxCell>
        <mxCell id="04KiYXa_gExLw2YlK_Ps-12" value="&lt;font style=&quot;font-size: 16px&quot;&gt;VIL&lt;/font&gt;" style="text;html=1;strokeColor=none;fillColor=none;align=center;verticalAlign=middle;whiteSpace=wrap;rounded=0;strokeWidth=1;fontSize=14;" parent="04KiYXa_gExLw2YlK_Ps-1" vertex="1">
          <mxGeometry x="460" y="310" width="100" height="60" as="geometry" />
        </mxCell>
        <mxCell id="04KiYXa_gExLw2YlK_Ps-13" value="&lt;font style=&quot;font-size: 16px&quot;&gt;Implementierung&lt;/font&gt;" style="text;html=1;strokeColor=none;fillColor=none;align=center;verticalAlign=middle;whiteSpace=wrap;rounded=0;strokeWidth=1;fontSize=14;" parent="04KiYXa_gExLw2YlK_Ps-1" vertex="1">
          <mxGeometry x="300" y="480" width="160" height="60" as="geometry" />
        </mxCell>
        <mxCell id="04KiYXa_gExLw2YlK_Ps-14" value="&lt;font style=&quot;font-size: 16px&quot;&gt;ISO26262&lt;/font&gt;" style="text;html=1;strokeColor=none;fillColor=none;align=center;verticalAlign=middle;whiteSpace=wrap;rounded=0;strokeWidth=1;fontSize=10;" parent="04KiYXa_gExLw2YlK_Ps-1" vertex="1">
          <mxGeometry x="670" y="330" width="100" height="60" as="geometry" />
        </mxCell>
        <mxCell id="04KiYXa_gExLw2YlK_Ps-15" value="&lt;div&gt;&lt;font style=&quot;font-size: 16px&quot;&gt;Komponenten Design&lt;/font&gt;&lt;/div&gt;&lt;div&gt;&lt;font style=&quot;font-size: 16px&quot;&gt;(SIL)&lt;/font&gt;&lt;/div&gt;" style="text;html=1;strokeColor=none;fillColor=none;align=center;verticalAlign=middle;whiteSpace=wrap;rounded=0;strokeWidth=1;fontSize=14;" parent="04KiYXa_gExLw2YlK_Ps-1" vertex="1">
          <mxGeometry x="210" y="420" width="136" height="60" as="geometry" />
        </mxCell>
        <mxCell id="04KiYXa_gExLw2YlK_Ps-16" value="" style="endArrow=classic;html=1;rounded=0;fontSize=11;strokeWidth=2;" parent="04KiYXa_gExLw2YlK_Ps-1" edge="1">
          <mxGeometry width="50" height="50" relative="1" as="geometry">
            <mxPoint x="450" y="340" as="sourcePoint" />
            <mxPoint x="310" y="340" as="targetPoint" />
          </mxGeometry>
        </mxCell>
        <mxCell id="04KiYXa_gExLw2YlK_Ps-17" value="&lt;font style=&quot;font-size: 14px&quot;&gt;Verifikation&lt;/font&gt;" style="text;html=1;strokeColor=none;fillColor=none;align=center;verticalAlign=middle;whiteSpace=wrap;rounded=0;strokeWidth=1;fontSize=10;" parent="04KiYXa_gExLw2YlK_Ps-1" vertex="1">
          <mxGeometry x="330" y="300" width="100" height="60" as="geometry" />
        </mxCell>
        <mxCell id="04KiYXa_gExLw2YlK_Ps-18" value="" style="endArrow=classic;html=1;rounded=0;fontSize=11;strokeWidth=2;" parent="04KiYXa_gExLw2YlK_Ps-1" edge="1">
          <mxGeometry width="50" height="50" relative="1" as="geometry">
            <mxPoint x="260" y="239.9999999999999" as="sourcePoint" />
            <mxPoint x="500" y="240" as="targetPoint" />
          </mxGeometry>
        </mxCell>
        <mxCell id="04KiYXa_gExLw2YlK_Ps-19" value="&lt;font style=&quot;font-size: 14px&quot;&gt;Verifikationsvorschrift&lt;/font&gt;" style="text;html=1;strokeColor=none;fillColor=none;align=center;verticalAlign=middle;whiteSpace=wrap;rounded=0;strokeWidth=1;fontSize=10;" parent="04KiYXa_gExLw2YlK_Ps-1" vertex="1">
          <mxGeometry x="330" y="200" width="100" height="60" as="geometry" />
        </mxCell>
        <mxCell id="04KiYXa_gExLw2YlK_Ps-23" value="&lt;font style=&quot;font-size: 18px&quot; color=&quot;#999999&quot;&gt;Testfall&lt;/font&gt;" style="text;html=1;strokeColor=none;fillColor=none;align=center;verticalAlign=middle;whiteSpace=wrap;rounded=0;strokeWidth=1;fontSize=14;" parent="04KiYXa_gExLw2YlK_Ps-1" vertex="1">
          <mxGeometry x="580" y="490" width="100" height="60" as="geometry" />
        </mxCell>
        <mxCell id="04KiYXa_gExLw2YlK_Ps-4" value="" style="endArrow=none;html=1;rounded=0;strokeWidth=4;fontSize=11;" parent="04KiYXa_gExLw2YlK_Ps-1" edge="1">
          <mxGeometry width="50" height="50" relative="1" as="geometry">
            <mxPoint x="520" y="240" as="sourcePoint" />
            <mxPoint x="380" y="480" as="targetPoint" />
          </mxGeometry>
        </mxCell>
        <mxCell id="vhhvuqAol7P8wo1Jex0L-0" value="Akzeptanztest" style="text;html=1;strokeColor=none;fillColor=none;align=center;verticalAlign=middle;whiteSpace=wrap;rounded=0;strokeWidth=1;fontSize=14;" parent="04KiYXa_gExLw2YlK_Ps-1" vertex="1">
          <mxGeometry x="480" y="230" width="180" height="60" as="geometry" />
        </mxCell>
      </root>
    </mxGraphModel>
  </diagram>
  <diagram id="zs0m9RadU31lHLiYoz3q" name="Page-4">
    <mxGraphModel dx="1422" dy="752" grid="1" gridSize="10" guides="1" tooltips="1" connect="1" arrows="1" fold="1" page="1" pageScale="1" pageWidth="827" pageHeight="1169" math="0" shadow="0">
      <root>
        <mxCell id="IW0fU7_PpMebHB0QpAnF-0" />
        <mxCell id="IW0fU7_PpMebHB0QpAnF-1" parent="IW0fU7_PpMebHB0QpAnF-0" />
        <mxCell id="zOL_X3eqoKX0gR_Fkdl--0" value="&lt;div style=&quot;font-size: 16px&quot;&gt;&lt;b&gt;&lt;font style=&quot;font-size: 16px&quot;&gt; Konzeptphase&lt;br&gt;&lt;/font&gt;&lt;/b&gt;&lt;/div&gt;" style="text;html=1;strokeColor=default;fillColor=none;align=center;verticalAlign=middle;whiteSpace=wrap;rounded=0;" parent="IW0fU7_PpMebHB0QpAnF-1" vertex="1">
          <mxGeometry x="40" y="160" width="240" height="40" as="geometry" />
        </mxCell>
        <mxCell id="zOL_X3eqoKX0gR_Fkdl--3" style="edgeStyle=orthogonalEdgeStyle;rounded=0;orthogonalLoop=1;jettySize=auto;html=1;exitX=1;exitY=0.5;exitDx=0;exitDy=0;entryX=0;entryY=0.5;entryDx=0;entryDy=0;fontSize=16;strokeWidth=2;" parent="IW0fU7_PpMebHB0QpAnF-1" source="zOL_X3eqoKX0gR_Fkdl--1" target="zOL_X3eqoKX0gR_Fkdl--2" edge="1">
          <mxGeometry relative="1" as="geometry" />
        </mxCell>
        <mxCell id="zOL_X3eqoKX0gR_Fkdl--1" value="&lt;div style=&quot;font-size: 16px&quot;&gt;&lt;b&gt;Produktentwicklungszyklus&lt;font style=&quot;font-size: 16px&quot;&gt;&lt;br&gt;&lt;/font&gt;&lt;/b&gt;&lt;/div&gt;" style="text;html=1;strokeColor=default;fillColor=none;align=center;verticalAlign=middle;whiteSpace=wrap;rounded=0;" parent="IW0fU7_PpMebHB0QpAnF-1" vertex="1">
          <mxGeometry x="280" y="160" width="320" height="40" as="geometry" />
        </mxCell>
        <mxCell id="zOL_X3eqoKX0gR_Fkdl--2" value="&lt;font style=&quot;font-size: 16px&quot;&gt;&lt;b&gt;Produktion&lt;/b&gt;&lt;/font&gt;" style="text;html=1;strokeColor=default;fillColor=none;align=center;verticalAlign=middle;whiteSpace=wrap;rounded=0;" parent="IW0fU7_PpMebHB0QpAnF-1" vertex="1">
          <mxGeometry x="650" y="160" width="152" height="40" as="geometry" />
        </mxCell>
        <mxCell id="zOL_X3eqoKX0gR_Fkdl--4" value="" style="rounded=0;whiteSpace=wrap;html=1;fontSize=16;fillColor=none;" parent="IW0fU7_PpMebHB0QpAnF-1" vertex="1">
          <mxGeometry x="40" y="200" width="240" height="180" as="geometry" />
        </mxCell>
        <mxCell id="zOL_X3eqoKX0gR_Fkdl--5" value="" style="rounded=0;whiteSpace=wrap;html=1;fontSize=16;fillColor=none;" parent="IW0fU7_PpMebHB0QpAnF-1" vertex="1">
          <mxGeometry x="280" y="200" width="320" height="180" as="geometry" />
        </mxCell>
        <mxCell id="muKaJdGNl-PNNRD7PS76-0" value="Technische Anforderungen detaillieren die sprachlich verfassten Anforderungen in dem diese Parameter festlegen und gegen somit an in welchen Bereichen das System funktionieren muss" style="text;html=1;strokeColor=none;fillColor=none;align=center;verticalAlign=middle;whiteSpace=wrap;rounded=0;fontSize=16;" parent="IW0fU7_PpMebHB0QpAnF-1" vertex="1">
          <mxGeometry x="210" y="500" width="350" height="120" as="geometry" />
        </mxCell>
      </root>
    </mxGraphModel>
  </diagram>
  <diagram id="kLkEDSVhCkteG7ibYaJT" name="Page-5">
    <mxGraphModel dx="981" dy="519" grid="1" gridSize="10" guides="1" tooltips="1" connect="1" arrows="1" fold="1" page="1" pageScale="1" pageWidth="827" pageHeight="1169" math="0" shadow="0">
      <root>
        <mxCell id="PKk-_By_TQiHV7UI6bV2-0" />
        <mxCell id="PKk-_By_TQiHV7UI6bV2-1" parent="PKk-_By_TQiHV7UI6bV2-0" />
        <mxCell id="Ybz4Hj4j_PC97eQ6-r8v-0" value="&lt;b&gt;&lt;font style=&quot;font-size: 16px&quot;&gt;Funktionales Szenario&lt;br&gt;&lt;/font&gt;&lt;/b&gt;" style="text;html=1;strokeColor=default;fillColor=none;align=center;verticalAlign=middle;whiteSpace=wrap;rounded=0;" vertex="1" parent="PKk-_By_TQiHV7UI6bV2-1">
          <mxGeometry x="54" y="160" width="246" height="40" as="geometry" />
        </mxCell>
        <mxCell id="Ybz4Hj4j_PC97eQ6-r8v-4" value="" style="rounded=0;whiteSpace=wrap;html=1;fontSize=16;fillColor=none;" vertex="1" parent="PKk-_By_TQiHV7UI6bV2-1">
          <mxGeometry x="54" y="200" width="246" height="320" as="geometry" />
        </mxCell>
        <mxCell id="Ybz4Hj4j_PC97eQ6-r8v-6" value="&lt;b&gt;&lt;font style=&quot;font-size: 16px&quot;&gt;Logisches&lt;/font&gt;&lt;/b&gt;&lt;b style=&quot;font-size: 16px&quot;&gt;&lt;font style=&quot;font-size: 16px&quot;&gt;&lt;font style=&quot;font-size: 16px&quot;&gt; Szenario&lt;/font&gt;&lt;br&gt;&lt;/font&gt;&lt;/b&gt;" style="text;html=1;strokeColor=default;fillColor=none;align=center;verticalAlign=middle;whiteSpace=wrap;rounded=0;" vertex="1" parent="PKk-_By_TQiHV7UI6bV2-1">
          <mxGeometry x="300" y="160" width="240" height="40" as="geometry" />
        </mxCell>
        <mxCell id="Ybz4Hj4j_PC97eQ6-r8v-7" value="" style="rounded=0;whiteSpace=wrap;html=1;fontSize=16;fillColor=none;" vertex="1" parent="PKk-_By_TQiHV7UI6bV2-1">
          <mxGeometry x="300" y="200" width="240" height="320" as="geometry" />
        </mxCell>
        <mxCell id="Ybz4Hj4j_PC97eQ6-r8v-8" value="&lt;b&gt;&lt;font style=&quot;font-size: 16px&quot;&gt;Konkretes Szenario&lt;br&gt;&lt;/font&gt;&lt;/b&gt;" style="text;html=1;strokeColor=default;fillColor=none;align=center;verticalAlign=middle;whiteSpace=wrap;rounded=0;" vertex="1" parent="PKk-_By_TQiHV7UI6bV2-1">
          <mxGeometry x="540" y="160" width="234" height="40" as="geometry" />
        </mxCell>
        <mxCell id="Ybz4Hj4j_PC97eQ6-r8v-9" value="" style="rounded=0;whiteSpace=wrap;html=1;fontSize=16;fillColor=none;" vertex="1" parent="PKk-_By_TQiHV7UI6bV2-1">
          <mxGeometry x="540" y="200" width="234" height="320" as="geometry" />
        </mxCell>
        <mxCell id="Ybz4Hj4j_PC97eQ6-r8v-14" value="&lt;b&gt;&amp;nbsp;Bewegliche Objekte&lt;/b&gt;" style="text;html=1;strokeColor=none;fillColor=none;align=left;verticalAlign=middle;whiteSpace=wrap;rounded=0;fontSize=16;" vertex="1" parent="PKk-_By_TQiHV7UI6bV2-1">
          <mxGeometry x="54" y="320" width="246" height="30" as="geometry" />
        </mxCell>
        <mxCell id="Ybz4Hj4j_PC97eQ6-r8v-15" value="&lt;div style=&quot;font-size: 15px&quot; align=&quot;justify&quot;&gt;3-spurige Autobahn in Kurve Begrenzung auf 100 km/h durch Verkehrszeichen rechts und links&lt;/div&gt;" style="text;html=1;strokeColor=none;fillColor=none;align=center;verticalAlign=middle;whiteSpace=wrap;rounded=0;fontSize=16;" vertex="1" parent="PKk-_By_TQiHV7UI6bV2-1">
          <mxGeometry x="60" y="230" width="230" height="60" as="geometry" />
        </mxCell>
        <mxCell id="Ybz4Hj4j_PC97eQ6-r8v-16" value="&lt;div align=&quot;left&quot;&gt;&lt;b&gt;Basisstrecke&lt;/b&gt;&lt;/div&gt;" style="text;html=1;strokeColor=none;fillColor=none;align=left;verticalAlign=middle;whiteSpace=wrap;rounded=0;fontSize=16;" vertex="1" parent="PKk-_By_TQiHV7UI6bV2-1">
          <mxGeometry x="60" y="200" width="230" height="30" as="geometry" />
        </mxCell>
        <mxCell id="Ybz4Hj4j_PC97eQ6-r8v-17" value="&lt;div align=&quot;justify&quot;&gt;Ego, Stau;&lt;/div&gt;&lt;div align=&quot;justify&quot;&gt;Interaktion: Ego in ManÃ¶ver &quot;AnnÃ¤hern&quot; auf mittleren Fahrstreifen, Stau zÃ¤hflieÃend&lt;br&gt;&lt;/div&gt;" style="text;html=1;strokeColor=none;fillColor=none;align=center;verticalAlign=middle;whiteSpace=wrap;rounded=0;fontSize=16;" vertex="1" parent="PKk-_By_TQiHV7UI6bV2-1">
          <mxGeometry x="60" y="340" width="230" height="100" as="geometry" />
        </mxCell>
        <mxCell id="Ybz4Hj4j_PC97eQ6-r8v-18" value="&lt;b&gt;&amp;nbsp;Umwelt&lt;/b&gt;" style="text;html=1;strokeColor=none;fillColor=none;align=left;verticalAlign=middle;whiteSpace=wrap;rounded=0;fontSize=16;" vertex="1" parent="PKk-_By_TQiHV7UI6bV2-1">
          <mxGeometry x="54" y="440" width="246" height="30" as="geometry" />
        </mxCell>
        <mxCell id="Ybz4Hj4j_PC97eQ6-r8v-19" value="&lt;div align=&quot;left&quot;&gt;Sommer, Regen&lt;br&gt;&lt;/div&gt;" style="text;html=1;strokeColor=none;fillColor=none;align=left;verticalAlign=middle;whiteSpace=wrap;rounded=0;fontSize=16;" vertex="1" parent="PKk-_By_TQiHV7UI6bV2-1">
          <mxGeometry x="60" y="460" width="230" height="34" as="geometry" />
        </mxCell>
        <mxCell id="Ybz4Hj4j_PC97eQ6-r8v-20" value="&lt;b&gt;&amp;nbsp;Bewegliche Objekte&lt;/b&gt;" style="text;html=1;strokeColor=none;fillColor=none;align=left;verticalAlign=middle;whiteSpace=wrap;rounded=0;fontSize=16;" vertex="1" parent="PKk-_By_TQiHV7UI6bV2-1">
          <mxGeometry x="300" y="320" width="246" height="30" as="geometry" />
        </mxCell>
        <mxCell id="Ybz4Hj4j_PC97eQ6-r8v-21" value="&lt;div style=&quot;font-size: 15px&quot; align=&quot;justify&quot;&gt;&lt;font style=&quot;font-size: 15px&quot;&gt;Breite Fahrstreifen&amp;nbsp;&amp;nbsp;&amp;nbsp; [2,3...3,5]m&lt;/font&gt;&lt;/div&gt;&lt;div style=&quot;font-size: 15px&quot; align=&quot;justify&quot;&gt;&lt;font style=&quot;font-size: 15px&quot;&gt;Kurvenradius&amp;nbsp;&amp;nbsp;&amp;nbsp;&amp;nbsp;&amp;nbsp;&amp;nbsp;&amp;nbsp;&amp;nbsp;&amp;nbsp;&amp;nbsp;&amp;nbsp;&amp;nbsp; [0,6...0,9]m&lt;/font&gt;&lt;/div&gt;&lt;div style=&quot;font-size: 15px&quot; align=&quot;justify&quot;&gt;&lt;font style=&quot;font-size: 15px&quot;&gt;PosVerkehrszeichen [0...200]m&lt;br&gt;&lt;/font&gt;&lt;/div&gt;" style="text;html=1;strokeColor=none;fillColor=none;align=center;verticalAlign=middle;whiteSpace=wrap;rounded=0;fontSize=16;" vertex="1" parent="PKk-_By_TQiHV7UI6bV2-1">
          <mxGeometry x="299" y="220" width="230" height="80" as="geometry" />
        </mxCell>
        <mxCell id="Ybz4Hj4j_PC97eQ6-r8v-22" value="&lt;div align=&quot;left&quot;&gt;&lt;b&gt;Basisstrecke&lt;/b&gt;&lt;/div&gt;" style="text;html=1;strokeColor=none;fillColor=none;align=left;verticalAlign=middle;whiteSpace=wrap;rounded=0;fontSize=16;" vertex="1" parent="PKk-_By_TQiHV7UI6bV2-1">
          <mxGeometry x="306" y="200" width="230" height="30" as="geometry" />
        </mxCell>
        <mxCell id="Ybz4Hj4j_PC97eQ6-r8v-23" value="&lt;div style=&quot;font-size: 15px&quot; align=&quot;left&quot;&gt;&lt;font style=&quot;font-size: 15px&quot;&gt;StauendePos. [10...200]m&lt;/font&gt;&lt;/div&gt;&lt;div style=&quot;font-size: 15px&quot; align=&quot;left&quot;&gt;&lt;font style=&quot;font-size: 15px&quot;&gt;Stau Geschw. [0...30]km/h&lt;/font&gt;&lt;/div&gt;&lt;div style=&quot;font-size: 15px&quot; align=&quot;left&quot;&gt;&lt;font style=&quot;font-size: 15px&quot;&gt;Ego Abstand&amp;nbsp;&amp;nbsp; [50...300]m&lt;/font&gt;&lt;/div&gt;&lt;div style=&quot;font-size: 15px&quot; align=&quot;left&quot;&gt;&lt;font style=&quot;font-size: 15px&quot;&gt;Ego Geschw.&amp;nbsp; [80...130]km/h&lt;br&gt;&lt;/font&gt;&lt;/div&gt;" style="text;html=1;strokeColor=none;fillColor=none;align=left;verticalAlign=middle;whiteSpace=wrap;rounded=0;fontSize=16;" vertex="1" parent="PKk-_By_TQiHV7UI6bV2-1">
          <mxGeometry x="306" y="340" width="230" height="100" as="geometry" />
        </mxCell>
        <mxCell id="Ybz4Hj4j_PC97eQ6-r8v-24" value="&lt;b&gt;&amp;nbsp;Umwelt&lt;/b&gt;" style="text;html=1;strokeColor=none;fillColor=none;align=left;verticalAlign=middle;whiteSpace=wrap;rounded=0;fontSize=16;" vertex="1" parent="PKk-_By_TQiHV7UI6bV2-1">
          <mxGeometry x="305" y="440" width="246" height="30" as="geometry" />
        </mxCell>
        <mxCell id="Ybz4Hj4j_PC97eQ6-r8v-25" value="&lt;font style=&quot;font-size: 15px&quot;&gt;Temperatur&amp;nbsp;&amp;nbsp;&amp;nbsp;&amp;nbsp;&amp;nbsp;&amp;nbsp;&amp;nbsp; [10...40]Â°C &lt;br&gt;&lt;/font&gt;&lt;div style=&quot;font-size: 15px&quot; align=&quot;left&quot;&gt;&lt;font style=&quot;font-size: 15px&quot;&gt;TrÃ¶pfchengrÃ¶Ãe [20...200]&lt;/font&gt;&lt;font style=&quot;font-size: 15px&quot;&gt;nm&lt;/font&gt;&lt;/div&gt;" style="text;html=1;strokeColor=none;fillColor=none;align=left;verticalAlign=middle;whiteSpace=wrap;rounded=0;fontSize=16;" vertex="1" parent="PKk-_By_TQiHV7UI6bV2-1">
          <mxGeometry x="310" y="460" width="230" height="50" as="geometry" />
        </mxCell>
        <mxCell id="Ybz4Hj4j_PC97eQ6-r8v-26" value="&lt;div style=&quot;font-size: 15px&quot; align=&quot;left&quot;&gt;&lt;font style=&quot;font-size: 15px&quot;&gt;Breite Fahrstreifen &amp;nbsp;&amp;nbsp; [3.2]m&lt;/font&gt;&lt;/div&gt;&lt;div style=&quot;font-size: 15px&quot; align=&quot;left&quot;&gt;&lt;font style=&quot;font-size: 15px&quot;&gt;Kurvenradius&amp;nbsp;&amp;nbsp;&amp;nbsp;&amp;nbsp;&amp;nbsp;&amp;nbsp;&amp;nbsp;&amp;nbsp;&amp;nbsp;&amp;nbsp;&amp;nbsp;&amp;nbsp; [0,7]m&lt;/font&gt;&lt;/div&gt;&lt;div style=&quot;font-size: 15px&quot; align=&quot;left&quot;&gt;&lt;font style=&quot;font-size: 15px&quot;&gt;PosVerkehrszeichen [150]m&lt;br&gt;&lt;/font&gt;&lt;/div&gt;" style="text;html=1;strokeColor=none;fillColor=none;align=left;verticalAlign=middle;whiteSpace=wrap;rounded=0;fontSize=16;" vertex="1" parent="PKk-_By_TQiHV7UI6bV2-1">
          <mxGeometry x="548" y="220" width="202" height="80" as="geometry" />
        </mxCell>
        <mxCell id="Ybz4Hj4j_PC97eQ6-r8v-27" value="&lt;div align=&quot;left&quot;&gt;&lt;b&gt;Basisstrecke&lt;/b&gt;&lt;/div&gt;" style="text;html=1;strokeColor=none;fillColor=none;align=left;verticalAlign=middle;whiteSpace=wrap;rounded=0;fontSize=16;" vertex="1" parent="PKk-_By_TQiHV7UI6bV2-1">
          <mxGeometry x="547" y="200" width="230" height="30" as="geometry" />
        </mxCell>
        <mxCell id="Ybz4Hj4j_PC97eQ6-r8v-28" value="&lt;b&gt;&amp;nbsp;Bewegliche Objekte&lt;/b&gt;" style="text;html=1;strokeColor=none;fillColor=none;align=left;verticalAlign=middle;whiteSpace=wrap;rounded=0;fontSize=16;" vertex="1" parent="PKk-_By_TQiHV7UI6bV2-1">
          <mxGeometry x="540" y="320" width="246" height="30" as="geometry" />
        </mxCell>
        <mxCell id="Ybz4Hj4j_PC97eQ6-r8v-29" value="&lt;div style=&quot;font-size: 15px&quot; align=&quot;left&quot;&gt;&lt;font style=&quot;font-size: 15px&quot;&gt;StauendePos&amp;nbsp; [40]m&lt;/font&gt;&lt;/div&gt;&lt;div style=&quot;font-size: 15px&quot; align=&quot;left&quot;&gt;&lt;font style=&quot;font-size: 15px&quot;&gt;Stau Geschw. [30]km/h&lt;/font&gt;&lt;/div&gt;&lt;div style=&quot;font-size: 15px&quot; align=&quot;left&quot;&gt;&lt;font style=&quot;font-size: 15px&quot;&gt;Ego Abstand&amp;nbsp;&amp;nbsp; [200]m&lt;/font&gt;&lt;/div&gt;&lt;div style=&quot;font-size: 15px&quot; align=&quot;left&quot;&gt;&lt;font style=&quot;font-size: 15px&quot;&gt;Ego Geschw.&amp;nbsp; [100]km/h&lt;br&gt;&lt;/font&gt;&lt;/div&gt;" style="text;html=1;strokeColor=none;fillColor=none;align=left;verticalAlign=middle;whiteSpace=wrap;rounded=0;fontSize=16;" vertex="1" parent="PKk-_By_TQiHV7UI6bV2-1">
          <mxGeometry x="546" y="340" width="230" height="100" as="geometry" />
        </mxCell>
        <mxCell id="Ybz4Hj4j_PC97eQ6-r8v-30" value="&lt;b&gt;&amp;nbsp;Umwelt&lt;/b&gt;" style="text;html=1;strokeColor=none;fillColor=none;align=left;verticalAlign=middle;whiteSpace=wrap;rounded=0;fontSize=16;" vertex="1" parent="PKk-_By_TQiHV7UI6bV2-1">
          <mxGeometry x="545" y="440" width="246" height="30" as="geometry" />
        </mxCell>
        <mxCell id="Ybz4Hj4j_PC97eQ6-r8v-31" value="&lt;font style=&quot;font-size: 15px&quot;&gt;Temperatur [20]Â°C &lt;br&gt;&lt;/font&gt;&lt;div style=&quot;font-size: 15px&quot; align=&quot;left&quot;&gt;&lt;font style=&quot;font-size: 15px&quot;&gt;TrÃ¶pfchengrÃ¶Ãe [30]&lt;/font&gt;&lt;font style=&quot;font-size: 15px&quot;&gt;nm&lt;/font&gt;&lt;/div&gt;" style="text;html=1;strokeColor=none;fillColor=none;align=left;verticalAlign=middle;whiteSpace=wrap;rounded=0;fontSize=16;" vertex="1" parent="PKk-_By_TQiHV7UI6bV2-1">
          <mxGeometry x="550" y="460" width="230" height="50" as="geometry" />
        </mxCell>
      </root>
    </mxGraphModel>
  </diagram>
</mxfile>
